<?xml version="1.0" standalone="no"?><!DOCTYPE svg PUBLIC "-//W3C//DTD SVG 1.1//EN" "http://www.w3.org/Graphics/SVG/1.1/DTD/svg11.dtd"><svg t="1594783442178" class="icon" viewBox="0 0 1024 1024" version="1.1" xmlns="http://www.w3.org/2000/svg" p-id="1054" xmlns:xlink="http://www.w3.org/1999/xlink" width="200" height="200"><defs><style type="text/css"></style></defs><path d="M28 775.84a381.336 94.504 0 1 0 762.672 0 381.336 94.504 0 1 0-762.672 0z" fill="#B8CBCD" p-id="1055"></path><path d="M661.512 419.28L447.92 65.336 76 657.336c0 61.264 166.512 147.112 371.92 147.112" fill="#F7BB83" p-id="1056"></path><path d="M980 770.032l-0.096-0.16c0-0.184 0.04-0.352 0.04-0.528h-0.352L704.08 350.528 428.56 827.744h-0.4c0 0.2 0.048 0.4 0.056 0.6l-0.056 0.096h0.064c1.304 45.104 128.192 80 279.784 80s270.672-93.312 271.888-138.416H980z" fill="#F7BB83" p-id="1057"></path><path d="M625.232 356.44L447.92 65.336 270.616 356.44 356 513.336l104-208 88 115.104z" fill="#FFFFFF" p-id="1058"></path><path d="M356 529.336a16 16 0 0 1-14.056-8.352L256.56 364.088a16 16 0 0 1 0.392-15.968L434.256 57.016a15.984 15.984 0 0 1 27.328 0l177.312 291.112a16 16 0 0 1-3.456 20.64l-77.232 64a15.888 15.888 0 0 1-12.008 3.576 16.032 16.032 0 0 1-10.904-6.176l-72.44-94.76-92.544 185.08a16 16 0 0 1-14.032 8.84l-0.28 0.008z m-66.928-172.44L355.4 478.752l90.288-180.576a16.032 16.032 0 0 1 12.8-8.776 15.968 15.968 0 0 1 14.224 6.208l77.896 101.888 53.768-44.552L447.92 96.088 289.072 356.896z" fill="#6E4123" p-id="1059"></path><path d="M439.92 820.44C229.464 820.44 60 731.216 60 657.328c0-3.008 0.848-5.96 2.456-8.504l371.92-592c2.952-4.704 8.304-7.416 13.688-7.496a16 16 0 0 1 13.56 7.736l211.528 350.384a16 16 0 0 1-27.4 16.528L447.648 95.84 92.352 661.384c7.912 46.8 148.976 127.064 347.568 127.064a16 16 0 0 1 0 31.992z" fill="#6E4123" p-id="1060"></path><path d="M850.672 604.44L704.08 350.528 557.48 604.44l62.52 48 56-99.104 120 160z" fill="#FFFFFF" p-id="1061"></path><path d="M795.992 729.336c-5 0-9.76-2.352-12.8-6.4L677.888 582.52l-43.96 77.792a16.02 16.02 0 0 1-10.736 7.816 16.064 16.064 0 0 1-12.936-2.992l-62.52-48a15.992 15.992 0 0 1-4.112-20.688l146.6-253.912a16 16 0 0 1 27.712 0l146.592 253.912a16.028 16.028 0 0 1 0.448 15.176l-54.672 108.888a16.016 16.016 0 0 1-14.312 8.824zM676 537.336c5.016 0 9.768 2.36 12.8 6.4l104.496 139.328 39.208-78.088L704.08 382.528 578.352 600.296l36.784 28.24 46.936-83.072A16 16 0 0 1 676 537.336z" fill="#6E4123" p-id="1062"></path><path d="M708 924.44c-144.456 0-291.616-32.304-295.704-94.056a15.504 15.504 0 0 1-0.128-2.016c-0.016-0.224-0.016-0.44-0.016-0.624 0-4.12 1.552-7.864 4.104-10.704l273.968-474.52a15.99 15.99 0 0 1 13.392-7.992 15.784 15.784 0 0 1 13.832 7.192l274.32 416.984a15.712 15.712 0 0 1 4.16 11.36 17.568 17.568 0 0 1-0.104 1.72C992.304 831.272 860.728 924.44 708 924.44z m-263.12-92.976c9.136 26.04 110.16 60.976 263.12 60.976 144.432 0 246.464-84.84 255.28-118.8L704.96 380.984l-260.08 450.48z" fill="#6E4123" p-id="1063"></path><path d="M708 932.44c-110.84 0-298.44-21.416-303.68-101.392a23.896 23.896 0 0 1-0.168-3.144c-86.808-3.304-170.12-21.64-237.104-52.432C93.936 741.864 52 698.8 52 657.336a23.97 23.97 0 0 1 3.68-12.768l371.92-592c4.504-7.184 12.608-11.672 20.936-11.224a23.992 23.992 0 0 1 20.336 12.28l183.52 328.36 32.096-45.32a23.648 23.648 0 0 1 20-10.136 24.02 24.02 0 0 1 19.64 10.816l274.008 416.504a23.576 23.576 0 0 1 5.792 16.44 22.408 22.408 0 0 1-0.128 2.208C999.632 836.392 867.392 932.44 708 932.44zM452.536 829.424c6.072 17.344 95.72 55.016 255.464 55.016 134.536 0 234.408-76.992 246.64-109.384L703.344 393.08l-33.76 47.672a24.184 24.184 0 0 1-20.864 10.104 24.048 24.048 0 0 1-19.672-12.256L446.712 112.368l-345.888 550.56c11.144 39.696 134.136 117.208 330.712 117.512a23.984 23.984 0 0 1 23.776 27.008l-2.776 21.976z" fill="#6E4123" p-id="1064"></path><path d="M700 348.44v-192l160 76-160 52" fill="#F6E89A" p-id="1065"></path><path d="M700 372.44a24 24 0 0 1-24-24v-63.456a25.76 25.76 0 0 1 0-1.112v-127.44a24 24 0 0 1 34.296-21.68l160 76a24 24 0 0 1-2.88 44.504L724 301.88v46.56a24 24 0 0 1-24 24z m24-178.032V251.4l71.24-23.152-71.24-33.84z" fill="#6E4123" p-id="1066"></path><path d="M388 859.416h64v125.912h-64z" fill="#F7BB83" p-id="1067"></path><path d="M452 1001.336h-64a16 16 0 0 1-16-16V859.424a16 16 0 0 1 16-16h64a16 16 0 0 1 16 16v125.912a16 16 0 0 1-16 16z m-48-32h32v-93.912h-32v93.912z" fill="#6E4123" p-id="1068"></path><path d="M564.896 856.768l-0.04-0.08 0.016-0.264h-0.168L428.448 649.336 292.192 856.432H292c0 0.104 0.024 0.2 0.024 0.304l-0.024 0.04h0.032c0.648 22.304 63.392 68.448 138.352 68.448 74.96 0 133.848-46.144 134.456-68.448h0.056z" fill="#B2EDA6" p-id="1069"></path><path d="M430.384 941.216c-75.88 0-151.464-46.936-154.28-82.68a15.36 15.36 0 0 1-0.104-1.608l-0.008-0.504c0-4.072 1.52-7.792 4.024-10.608l135.056-205.28a16 16 0 0 1 26.736 0l135.368 205.76a15.757 15.757 0 0 1 3.688 10.136l-0.008 0.56a15.816 15.816 0 0 1-0.096 1.512c-2.584 33.192-69.64 82.712-150.376 82.712z m-121.048-81.744c8.936 15.28 59.104 49.744 121.048 49.744 64.384 0 108.96-35.2 117.16-49.752L428.448 678.44 309.336 859.472z" fill="#3C663E" p-id="1070"></path><path d="M536.344 725.376l-0.032-0.064 0.016-0.208h-0.136L428.448 561.336l-107.744 163.76h-0.16l0.016 0.232-0.016 0.04h0.024c0.504 17.64 50.128 54.128 109.408 54.128s105.848-36.488 106.32-54.128h0.048z" fill="#B2EDA6" p-id="1071"></path><path d="M429.984 795.496c-62.672 0-122.832-38.16-125.328-68.392a17.888 17.888 0 0 1-0.096-1.616v-0.392c0-3.984 1.456-7.624 3.864-10.432l106.664-162.136a16.024 16.024 0 0 1 26.736 0l106.944 162.56a15.812 15.812 0 0 1 3.568 10l-0.008 0.512a14.432 14.432 0 0 1-0.08 1.312c-2.184 30.552-59.304 68.584-122.264 68.584zM338.4 727.328c8.992 11.832 45.304 36.168 91.584 36.168 45.48 0 80.296-24.248 88.64-35.984L428.448 590.44 338.4 727.328z" fill="#3C663E" p-id="1072"></path><path d="M430.384 953.336c-80.88 0-158.544-49.968-162.224-89.728a23.688 23.688 0 0 1-0.152-2.384l-0.008-0.68a23.9 23.9 0 0 1 5.624-15.44l48.688-74.008c-12.368-9.912-24.432-23.488-25.648-39.28a22.32 22.32 0 0 1-0.112-2.072l-0.008-0.528c0-5.776 2.04-11.072 5.44-15.208L408.4 552.264a23.976 23.976 0 0 1 40.096 0L555.168 714.4a23.904 23.904 0 0 1 4.568 21.12c-2.576 14.472-13.576 26.856-24.84 36.064l48.744 74.096c3.264 4.088 5.224 9.248 5.224 14.864l-0.008 0.776a24.352 24.352 0 0 1-0.128 2.016c-3.2 40.16-77.032 90-158.344 90z m-111.128-90.264c13.056 14.744 56.776 42.256 111.128 42.256 54.264 0 95.456-27.128 107.496-41.88L481.792 778.2a24.016 24.016 0 0 1 8.4-34.168c8.912-4.952 14.768-9.712 18.312-13.224l-80.056-121.696-79.832 121.352c3.808 3.544 9.864 8.168 18.384 12.832a24 24 0 0 1 8.528 34.24l-56.272 85.536z" fill="#3C663E" p-id="1073"></path></svg>